<?xml version="1.0" standalone="no"?>
<!DOCTYPE svg PUBLIC "-//W3C//DTD SVG 20010904//EN"
 "http://www.w3.org/TR/2001/REC-SVG-20010904/DTD/svg10.dtd">
<svg version="1.0" xmlns="http://www.w3.org/2000/svg"
 width="512.000000pt" height="512.000000pt" viewBox="0 0 512.000000 512.000000"
 preserveAspectRatio="xMidYMid meet">
<metadata>
Created by potrace 1.11, written by Peter Selinger 2001-2013
</metadata>
<g transform="translate(0.000000,512.000000) scale(0.100000,-0.100000)"
fill="#000000" stroke="none">
<path d="M2457 4754 c-1 -1 -38 -4 -82 -8 -111 -9 -144 -14 -275 -42 -560
-119 -1059 -457 -1375 -933 -155 -234 -277 -535 -320 -786 -34 -199 -43 -446
-24 -620 73 -663 460 -1260 1045 -1612 141 -84 271 -145 430 -198 237 -80 458
-117 714 -118 96 -1 249 8 296 17 10 2 44 7 74 11 230 30 521 134 775 277 47
27 222 147 262 180 337 280 574 621 703 1008 12 36 23 73 25 83 2 10 7 27 10
37 6 19 13 48 21 90 2 14 7 31 9 38 2 7 7 32 10 56 l6 43 -288 -4 c-158 -2
-382 -5 -498 -6 l-210 -3 -1 -451 c-1 -249 -4 -459 -7 -467 -13 -34 -304 -147
-543 -211 -261 -70 -488 -91 -757 -72 -227 17 -558 117 -710 214 -263 170
-432 382 -537 673 -76 211 -105 400 -104 670 1 230 22 369 85 560 75 231 160
371 324 535 258 258 510 372 915 412 137 14 396 8 560 -12 151 -19 568 -149
713 -221 l47 -24 1 -113 c3 -363 3 -357 -24 -357 -13 0 -32 9 -43 21 -29 33
-198 142 -304 197 -177 91 -355 147 -535 167 -27 3 -75 9 -105 13 -103 14
-279 2 -422 -29 -167 -35 -277 -86 -400 -186 -94 -75 -108 -89 -183 -193 -158
-220 -224 -473 -219 -834 5 -357 100 -636 286 -841 78 -86 225 -188 329 -228
182 -71 323 -95 527 -91 220 4 382 31 585 96 l127 41 0 41 c1 79 -2 342 -5
456 -2 63 -4 140 -4 172 l-1 56 -332 2 c-183 1 -361 2 -395 2 l-63 0 0 174 c0
132 3 174 13 175 6 1 498 2 1092 3 594 2 1088 4 1097 4 14 2 16 12 12 75 -26
470 -185 884 -478 1247 -56 70 -219 238 -278 286 -356 296 -769 471 -1228 520
-58 6 -337 13 -343 8z"/>
</g>
</svg>
